3.0Hz3min_grf.mot
version=1
nRows=22
nColumns 19
inDegrees=yes
endheader
time	1_ground_force_vx	1_ground_force_vy	1_ground_force_vz	1_ground_force_px	1_ground_force_py	1_ground_force_pz	1_ground_torque_x	1_ground_torque_y	1_ground_torque_z	2_ground_force_vx	2_ground_force_vy	2_ground_force_vz	2_ground_force_px	2_ground_force_py	2_ground_force_pz	2_ground_torque_x	2_ground_torque_y	2_ground_torque_z
            0.005000	           12.659766	           87.031051	            9.604833	           -0.227088	            0.006174	           -0.393720	           -0.115438	           -0.793589	           -0.087581	            1.919879	           78.089016	           -0.332409	           -0.238316	            0.005616	           -0.695673	           -0.007380	           -0.300187	            0.001278
            0.005500	           12.290662	           88.116309	            8.739119	           -0.229753	            0.006167	           -0.392102	           -0.142479	           -1.021483	           -0.101308	            1.025161	           79.374178	           -0.139718	           -0.239386	            0.005617	           -0.697130	           -0.002030	           -0.157198	            0.000277
            0.006000	           12.196759	           90.282625	            8.014927	           -0.229570	            0.006161	           -0.390797	           -0.139529	           -1.032819	           -0.091690	            0.409692	           81.211621	            0.383320	           -0.239213	            0.005626	           -0.699285	           -0.000766	           -0.151808	           -0.000717
            0.006500	           12.378499	           92.988612	            7.567507	           -0.228088	            0.006169	           -0.392513	           -0.101875	           -0.765292	           -0.062280	            0.073808	           83.419882	            0.485201	           -0.237221	            0.005634	           -0.699456	           -0.000070	           -0.079593	           -0.000463
            0.007000	           12.560302	           96.595534	            7.215664	           -0.229332	            0.006165	           -0.391602	           -0.081056	           -0.623364	           -0.046565	            0.259776	           83.789692	            0.251795	           -0.236301	            0.005629	           -0.697138	           -0.000413	           -0.133285	           -0.000401
            0.007500	           13.018744	           98.397689	            7.359824	           -0.229977	            0.006169	           -0.392480	           -0.081759	           -0.617943	           -0.046220	            0.437124	           86.553256	            0.073858	           -0.237481	            0.005620	           -0.696068	           -0.000515	           -0.101919	           -0.000087
            0.008000	           13.523434	          101.100199	            7.737014	           -0.230123	            0.006167	           -0.392171	           -0.099883	           -0.746720	           -0.057145	            0.425264	           89.867089	            0.320326	           -0.238125	            0.005625	           -0.698009	           -0.000571	           -0.120596	           -0.000430
            0.008500	           14.163179	          104.888261	            7.201382	           -0.227166	            0.006178	           -0.394641	           -0.102985	           -0.762673	           -0.052363	            0.316881	           93.918516	            0.194037	           -0.236469	            0.005633	           -0.698664	           -0.000616	           -0.182486	           -0.000377
            0.009000	           13.929939	          108.859763	            5.889135	           -0.227884	            0.006178	           -0.394627	           -0.110371	           -0.862525	           -0.046661	            0.444097	           97.602324	            0.113262	           -0.234573	            0.005639	           -0.698177	           -0.000704	           -0.154634	           -0.000179
            0.009500	           13.605989	          112.469143	            4.942417	           -0.227750	            0.006178	           -0.394496	           -0.107196	           -0.886102	           -0.038939	            0.201475	           99.993239	            0.731969	           -0.235640	            0.005629	           -0.696530	           -0.000234	           -0.116181	           -0.000850
            0.010000	           13.327376	          116.980451	            3.861881	           -0.228659	            0.006177	           -0.394341	           -0.088717	           -0.778712	           -0.025708	            0.045721	          104.227466	            0.934853	           -0.234419	            0.005638	           -0.697954	           -0.000021	           -0.048991	           -0.000439
            0.010500	           13.462162	          122.031062	            3.149488	           -0.227636	            0.006182	           -0.395520	           -0.078050	           -0.707500	           -0.018260	            0.308937	          109.199991	            1.093259	           -0.235017	            0.005634	           -0.697246	            0.000178	            0.062881	            0.000630
            0.011000	           14.378234	          125.096149	            3.068641	           -0.227486	            0.006187	           -0.396574	           -0.073289	           -0.637642	           -0.015642	            0.902700	          113.437594	            1.108112	           -0.234077	            0.005640	           -0.698042	           -0.000298	           -0.037407	           -0.000365
            0.011500	           15.018887	          130.144105	            2.996980	           -0.227348	            0.006182	           -0.395551	           -0.087304	           -0.756521	           -0.017421	            0.888016	          117.489359	            0.981783	           -0.234337	            0.005636	           -0.697278	           -0.000004	           -0.000486	           -0.000004
            0.012000	           15.383718	          135.013118	            2.604236	           -0.226772	            0.006188	           -0.396916	           -0.092830	           -0.814712	           -0.015715	            1.343826	          120.990378	            0.853284	           -0.233962	            0.005632	           -0.695799	           -0.000949	           -0.085475	           -0.000603
            0.012500	           15.609474	          140.245192	            1.617253	           -0.226328	            0.006189	           -0.397082	           -0.082325	           -0.739655	           -0.008529	            1.372813	          125.961875	            1.058717	           -0.233896	            0.005636	           -0.696761	           -0.000368	           -0.033739	           -0.000284
            0.013000	           15.192193	          144.758439	            0.078500	           -0.227502	            0.006184	           -0.396042	           -0.073919	           -0.704336	           -0.000382	            1.540295	          131.486849	            1.125277	           -0.232680	            0.005646	           -0.698369	           -0.000317	           -0.027074	           -0.000232
            0.013500	           14.820415	          149.272284	           -1.597934	           -0.228335	            0.006184	           -0.396093	           -0.062950	           -0.634032	            0.006787	            1.386199	          135.350102	            2.077697	           -0.232956	            0.005641	           -0.697225	            0.001049	            0.102388	            0.001572
            0.014000	           14.633634	          153.603147	           -2.633614	           -0.227457	            0.006188	           -0.396808	           -0.061774	           -0.648416	            0.011117	            1.512251	          139.400853	            2.373661	           -0.233073	            0.005643	           -0.697956	            0.001119	            0.103171	            0.001757
            0.014500	           14.768618	          157.572164	           -3.350645	           -0.225931	            0.006191	           -0.397654	           -0.068289	           -0.728604	            0.015493	            1.401497	          144.186545	            2.906994	           -0.233579	            0.005643	           -0.698548	            0.001673	            0.172104	            0.003470
            0.015000	           15.041778	          162.981760	           -3.694986	           -0.227166	            0.006186	           -0.396410	           -0.077052	           -0.834880	            0.018928	            2.182097	          148.608144	            3.157065	           -0.233031	            0.005642	           -0.697506	            0.002310	            0.157315	            0.003342
            0.015500	           15.314338	          167.311139	           -4.364956	           -0.227732	            0.006187	           -0.396651	           -0.080267	           -0.876926	            0.022878	            2.874232	          151.556887	            3.214207	           -0.232135	            0.005641	           -0.696442	            0.001503	            0.079253	            0.001681
